<svg width="1598" height="536" viewBox="0 0 1598 536" fill="none" xmlns="http://www.w3.org/2000/svg">
<g opacity="0.02" clip-path="url(#clip0_1265_44458)">
<rect y="-168" width="1599" height="810" fill="url(#paint0_linear_1265_44458)"/>
<path d="M554.33 538.253L468.909 460.78V526.533L553.552 603.314L554.33 604.006L641.419 526.014V458.27L554.33 538.253ZM478.14 481.647L554.367 550.775L632.164 479.31V521.898L554.367 591.57L478.14 522.442V481.647Z" fill="#6F5CA8"/>
<path d="M555.16 485.923V418.179L468.071 340.187L467.293 340.879L382.638 417.647V483.401L468.059 405.928L555.148 485.91L555.16 485.923ZM391.88 421.751L468.108 352.623L545.905 422.295V464.882L468.108 393.417L391.88 462.546V421.751Z" fill="#6F5CA8"/>
<path d="M745.647 538.253L660.226 460.78V526.533L744.868 603.314L745.647 604.006L832.736 526.014V458.27L745.647 538.253ZM669.456 481.647L745.684 550.775L823.48 479.31V521.898L745.684 591.57L669.456 522.442V481.647Z" fill="#6F5CA8"/>
<path d="M746.473 485.923V418.179L659.384 340.187L658.606 340.879L573.951 417.647V483.401L659.372 405.928L746.461 485.91L746.473 485.923ZM583.194 421.751L659.421 352.623L737.218 422.295V464.882L659.421 393.417L583.194 462.546V421.751Z" fill="#6F5CA8"/>
<path d="M171.682 538.253L86.2607 460.78L86.2607 526.533L170.916 603.314L171.694 604.006L258.783 526.014V458.27L171.694 538.253H171.682ZM95.4911 481.647L171.719 550.775L249.516 479.31V521.898L171.719 591.57L95.4911 522.442V481.647Z" fill="#6F5CA8"/>
<path d="M172.522 485.923V418.179L85.4333 340.187L84.6548 340.879L0 417.635L0 483.388L85.4209 405.915L172.51 485.898L172.522 485.923ZM9.24271 421.739L85.4703 352.61L163.267 422.283V464.87L85.4703 393.405L9.24271 462.534L9.24271 421.739Z" fill="#6F5CA8"/>
<path d="M363.001 538.253L277.58 460.78V526.533L362.235 603.314L363.013 604.006L450.102 526.014V458.27L363.013 538.253H363.001ZM286.81 481.647L363.038 550.775L440.835 479.31V521.898L363.038 591.57L286.81 522.442V481.647Z" fill="#6F5CA8"/>
<path d="M363.84 485.923V418.179L276.751 340.187L275.972 340.879L191.317 417.647V483.401L276.738 405.928L363.827 485.91L363.84 485.923ZM200.56 421.751L276.788 352.623L354.585 422.295V464.882L276.788 393.417L200.56 462.546V421.751Z" fill="#6F5CA8"/>
<path d="M936.964 538.253L851.543 460.78V526.533L936.185 603.314L936.964 604.006L1024.05 526.014V458.27L936.964 538.253ZM860.773 481.647L937.001 550.775L1014.8 479.31V521.898L937.001 591.57L860.773 522.442V481.647Z" fill="#6F5CA8"/>
<path d="M937.791 485.923V418.179L850.702 340.187L849.923 340.879L765.269 417.647V483.401L850.689 405.928L937.779 485.91L937.791 485.923ZM774.511 421.751L850.739 352.623L928.536 422.295V464.882L850.739 393.417L774.511 462.546V421.751Z" fill="#6F5CA8"/>
<path d="M1128.28 538.253L1042.86 460.78V526.533L1127.5 603.314L1128.28 604.006L1215.37 526.014V458.27L1128.28 538.253ZM1052.09 481.647L1128.32 550.775L1206.12 479.31V521.898L1128.32 591.57L1052.09 522.442V481.647Z" fill="#6F5CA8"/>
<path d="M1129.11 485.923V418.179L1042.02 340.187L1041.24 340.879L956.587 417.647V483.401L1042.01 405.928L1129.1 485.91L1129.11 485.923ZM965.83 421.751L1042.06 352.623L1119.85 422.295V464.882L1042.06 393.417L965.83 462.546V421.751Z" fill="#6F5CA8"/>
<path d="M1319.6 538.253L1234.17 460.78V526.533L1318.83 603.314L1319.61 604.006L1406.7 526.014V458.27L1319.61 538.253H1319.6ZM1243.41 481.647L1319.63 550.775L1397.43 479.31V521.898L1319.63 591.57L1243.41 522.442V481.647Z" fill="#6F5CA8"/>
<path d="M1320.43 485.923V418.179L1233.34 340.187L1232.56 340.879L1147.9 417.647V483.401L1233.33 405.928L1320.41 485.91L1320.43 485.923ZM1157.15 421.751L1233.37 352.623L1311.17 422.295V464.882L1233.37 393.417L1157.15 462.546V421.751Z" fill="#6F5CA8"/>
<path d="M1510.91 538.253L1425.49 460.78V526.533L1510.15 603.314L1510.92 604.006L1598.01 526.014V458.27L1510.92 538.253H1510.91ZM1434.72 481.647L1510.95 550.775L1588.75 479.31V521.898L1510.95 591.57L1434.72 522.442V481.647Z" fill="#6F5CA8"/>
<path d="M1511.75 485.923V418.179L1424.66 340.187L1423.89 340.879L1339.23 417.647V483.401L1424.65 405.928L1511.74 485.91L1511.75 485.923ZM1348.47 421.751L1424.7 352.623L1502.5 422.295V464.882L1424.7 393.417L1348.47 462.546V421.751Z" fill="#6F5CA8"/>
<path d="M554.33 323.364L468.909 245.892V311.645L553.564 388.413L554.342 389.106L641.431 311.114V243.37L554.342 323.352L554.33 323.364ZM478.14 266.759L554.367 335.887L632.164 264.422V307.009L554.367 376.682L478.14 307.553V266.759Z" fill="#6F5CA8"/>
<path d="M555.16 271.022V203.278L468.071 125.286L467.293 125.978L382.638 202.746V268.5L468.059 191.027L555.148 271.01L555.16 271.022ZM391.88 206.851L468.108 137.722L545.905 207.395V249.982L468.108 178.517L391.88 247.645V206.851Z" fill="#6F5CA8"/>
<path d="M745.647 323.364L660.226 245.892V311.645L744.88 388.413L745.659 389.106L832.748 311.114V243.37L745.659 323.352L745.647 323.364ZM669.456 266.759L745.684 335.887L823.48 264.422V307.009L745.684 376.682L669.456 307.553V266.759Z" fill="#6F5CA8"/>
<path d="M746.473 271.022V203.278L659.384 125.286L658.606 125.978L573.951 202.746V268.5L659.372 191.027L746.461 271.01L746.473 271.022ZM583.194 206.851L659.421 137.722L737.218 207.395V249.982L659.421 178.517L583.194 247.645V206.851Z" fill="#6F5CA8"/>
<path d="M171.682 323.364L86.2607 245.891L86.2607 311.645L170.916 388.413L171.694 389.106L258.783 311.114V243.37L171.694 323.352L171.682 323.364ZM95.4911 266.759L171.719 335.887L249.516 264.422V307.009L171.719 376.682L95.4911 307.553V266.759Z" fill="#6F5CA8"/>
<path d="M172.522 271.022V203.278L85.4333 125.286L84.6548 125.978L0 202.746L0 268.5L85.4209 191.027L172.51 271.01L172.522 271.022ZM9.24271 206.851L85.4703 137.722L163.267 207.395V249.982L85.4703 178.517L9.24271 247.645L9.24271 206.851Z" fill="#6F5CA8"/>
<path d="M363.001 323.364L277.58 245.892V311.645L362.235 388.414L363.013 389.106L450.102 311.114V243.37L363.013 323.352L363.001 323.364ZM286.81 266.759L363.038 335.887L440.835 264.422V307.009L363.038 376.682L286.81 307.553V266.759Z" fill="#6F5CA8"/>
<path d="M363.84 271.022V203.278L276.751 125.286L275.972 125.978L191.317 202.746V268.5L276.738 191.027L363.827 271.01L363.84 271.022ZM200.56 206.851L276.788 137.722L354.585 207.395V249.982L276.788 178.517L200.56 247.645V206.851Z" fill="#6F5CA8"/>
<path d="M936.964 323.364L851.543 245.892V311.645L936.198 388.413L936.976 389.106L1024.07 311.114V243.37L936.976 323.352L936.964 323.364ZM860.773 266.759L937.001 335.887L1014.8 264.422V307.009L937.001 376.682L860.773 307.553V266.759Z" fill="#6F5CA8"/>
<path d="M937.791 271.022V203.278L850.702 125.286L849.923 125.978L765.269 202.746V268.5L850.689 191.027L937.779 271.01L937.791 271.022ZM774.511 206.851L850.739 137.722L928.536 207.395V249.982L850.739 178.517L774.511 247.645V206.851Z" fill="#6F5CA8"/>
<path d="M1128.28 323.364L1042.86 245.892V311.645L1127.52 388.414L1128.29 389.106L1215.38 311.114V243.37L1128.29 323.352L1128.28 323.364ZM1052.09 266.759L1128.32 335.887L1206.12 264.422V307.009L1128.32 376.682L1052.09 307.553V266.759Z" fill="#6F5CA8"/>
<path d="M1129.11 271.022V203.278L1042.02 125.286L1041.24 125.978L956.587 202.746V268.5L1042.01 191.027L1129.1 271.01L1129.11 271.022ZM965.83 206.851L1042.06 137.722L1119.85 207.395V249.982L1042.06 178.517L965.83 247.645V206.851Z" fill="#6F5CA8"/>
<path d="M1319.6 323.364L1234.17 245.892V311.645L1318.83 388.414L1319.61 389.106L1406.7 311.114V243.37L1319.61 323.352L1319.6 323.364ZM1243.41 266.759L1319.63 335.887L1397.43 264.422V307.009L1319.63 376.682L1243.41 307.553V266.759Z" fill="#6F5CA8"/>
<path d="M1320.43 271.022V203.278L1233.34 125.286L1232.56 125.978L1147.9 202.747V268.5L1233.33 191.027L1320.41 271.01L1320.43 271.022ZM1157.15 206.851L1233.37 137.722L1311.17 207.395V249.982L1233.37 178.517L1157.15 247.645V206.851Z" fill="#6F5CA8"/>
<path d="M1510.91 323.364L1425.49 245.892V311.645L1510.15 388.414L1510.92 389.106L1598.01 311.114V243.37L1510.92 323.352L1510.91 323.364ZM1434.72 266.759L1510.95 335.887L1588.75 264.422V307.009L1510.95 376.682L1434.72 307.553V266.759Z" fill="#6F5CA8"/>
<path d="M1511.75 271.022V203.278L1424.66 125.286L1423.89 125.978L1339.23 202.747V268.5L1424.65 191.027L1511.74 271.01L1511.75 271.022ZM1348.47 206.851L1424.7 137.722L1502.5 207.395V249.982L1424.7 178.517L1348.47 247.645V206.851Z" fill="#6F5CA8"/>
<path d="M554.33 106.001L468.909 28.5278V94.2815L553.564 171.05L554.342 171.742L641.431 93.7499V26.0059L554.342 105.988L554.33 106.001ZM478.14 49.3949L554.367 118.523L632.164 47.0585V89.6457L554.367 159.318L478.14 90.1896V49.3949Z" fill="#6F5CA8"/>
<path d="M555.16 53.6582V-14.0857L468.071 -92.0779L467.293 -91.3856L382.638 -14.6173V51.1363L468.059 -26.3365L555.148 53.6458L555.16 53.6582ZM391.88 -10.5131L468.108 -79.6416L545.905 -9.9692V32.618L468.108 -38.8469L391.88 30.2816V-10.5131Z" fill="#6F5CA8"/>
<path d="M745.647 106.001L660.226 28.5278V94.2815L744.88 171.05L745.659 171.742L832.748 93.7499V26.0059L745.659 105.988L745.647 106.001ZM669.456 49.3949L745.684 118.523L823.48 47.0585V89.6457L745.684 159.318L669.456 90.1896V49.3949Z" fill="#6F5CA8"/>
<path d="M746.473 53.6582V-14.0857L659.384 -92.0779L658.606 -91.3856L573.951 -14.6173V51.1363L659.372 -26.3365L746.461 53.6458L746.473 53.6582ZM583.194 -10.5131L659.421 -79.6416L737.218 -9.9692V32.618L659.421 -38.8469L583.194 30.2816V-10.5131Z" fill="#6F5CA8"/>
<path d="M171.682 106L86.2607 28.5275L86.2607 94.2812L170.916 171.049L171.694 171.742L258.783 93.7496V26.0057L171.694 105.988L171.682 106ZM95.4911 49.3946L171.719 118.523L249.516 47.0582V89.6455L171.719 159.318L95.4911 90.1893V49.3946Z" fill="#6F5CA8"/>
<path d="M172.522 53.658V-14.086L85.4333 -92.0781L84.6548 -91.3858L0 -14.6176L0 51.1361L85.4209 -26.3368L172.51 53.6456L172.522 53.658ZM9.24271 -10.5134L85.4703 -79.6419L163.267 -9.96944V32.6178L85.4703 -38.8472L9.24271 30.2813L9.24271 -10.5134Z" fill="#6F5CA8"/>
<path d="M363.001 106.001L277.58 28.5278V94.2815L362.235 171.05L363.013 171.742L450.102 93.7499V26.0059L363.013 105.988L363.001 106.001ZM286.81 49.3949L363.038 118.523L440.835 47.0585V89.6457L363.038 159.318L286.81 90.1896V49.3949Z" fill="#6F5CA8"/>
<path d="M363.84 53.658V-14.086L276.751 -92.0781L275.972 -91.3858L191.317 -14.6176V51.1361L276.738 -26.3368L363.827 53.6456L363.84 53.658ZM200.56 -10.5134L276.788 -79.6419L354.585 -9.96944V32.6178L276.788 -38.8472L200.56 30.2813V-10.5134Z" fill="#6F5CA8"/>
<path d="M936.964 106.001L851.543 28.5278V94.2815L936.198 171.05L936.976 171.742L1024.07 93.7499V26.0059L936.976 105.988L936.964 106.001ZM860.773 49.3949L937.001 118.523L1014.8 47.0585V89.6457L937.001 159.318L860.773 90.1896V49.3949Z" fill="#6F5CA8"/>
<path d="M937.791 53.6582V-14.0857L850.702 -92.0779L849.923 -91.3856L765.269 -14.6173V51.1363L850.689 -26.3365L937.779 53.6458L937.791 53.6582ZM774.511 -10.5131L850.739 -79.6416L928.536 -9.9692V32.618L850.739 -38.8469L774.511 30.2816V-10.5131Z" fill="#6F5CA8"/>
<path d="M1128.28 106.001L1042.86 28.5278V94.2815L1127.52 171.05L1128.29 171.742L1215.38 93.7499V26.0059L1128.29 105.988L1128.28 106.001ZM1052.09 49.3949L1128.32 118.523L1206.12 47.0585V89.6457L1128.32 159.318L1052.09 90.1896V49.3949Z" fill="#6F5CA8"/>
<path d="M1129.11 53.6582V-14.0857L1042.02 -92.0779L1041.24 -91.3856L956.587 -14.6173V51.1363L1042.01 -26.3365L1129.1 53.6458L1129.11 53.6582ZM965.83 -10.5131L1042.06 -79.6416L1119.85 -9.9692V32.618L1042.06 -38.8469L965.83 30.2816V-10.5131Z" fill="#6F5CA8"/>
<path d="M1319.6 106.001L1234.17 28.5278V94.2815L1318.83 171.05L1319.61 171.742L1406.7 93.7499V26.0059L1319.61 105.988L1319.6 106.001ZM1243.41 49.3949L1319.63 118.523L1397.43 47.0585V89.6457L1319.63 159.318L1243.41 90.1896V49.3949Z" fill="#6F5CA8"/>
<path d="M1320.43 53.6582V-14.0857L1233.34 -92.0779L1232.56 -91.3856L1147.9 -14.6173V51.1363L1233.33 -26.3365L1320.41 53.6458L1320.43 53.6582ZM1157.15 -10.5131L1233.37 -79.6416L1311.17 -9.9692V32.618L1233.37 -38.8469L1157.15 30.2816V-10.5131Z" fill="#6F5CA8"/>
<path d="M1510.91 106.001L1425.49 28.5279V94.2815L1510.15 171.05L1510.92 171.742L1598.01 93.7499V26.006L1510.92 105.988L1510.91 106.001ZM1434.72 49.3949L1510.95 118.523L1588.75 47.0585V89.6458L1510.95 159.318L1434.72 90.1897V49.3949Z" fill="#6F5CA8"/>
<path d="M1511.75 53.6582V-14.0857L1424.66 -92.0779L1423.89 -91.3856L1339.23 -14.6173V51.1363L1424.65 -26.3365L1511.74 53.6458L1511.75 53.6582ZM1348.47 -10.5131L1424.7 -79.6416L1502.5 -9.9692V32.618L1424.7 -38.8469L1348.47 30.2816V-10.5131Z" fill="#6F5CA8"/>
<rect width="1599" height="678" fill="url(#paint1_linear_1265_44458)"/>
</g>
<defs>
<linearGradient id="paint0_linear_1265_44458" x1="800" y1="280.942" x2="800" y2="642" gradientUnits="userSpaceOnUse">
<stop stop-color="white" stop-opacity="0"/>
<stop offset="1" stop-color="white"/>
</linearGradient>
<linearGradient id="paint1_linear_1265_44458" x1="800" y1="27.5657" x2="800" y2="532.381" gradientUnits="userSpaceOnUse">
<stop stop-color="white" stop-opacity="0"/>
<stop offset="1" stop-color="white"/>
</linearGradient>
<clipPath id="clip0_1265_44458">
<rect width="536" height="1598" fill="white" transform="matrix(0 -1 1 0 0 536)"/>
</clipPath>
</defs>
</svg>
