<svg id="Ibm-Db2--Streamline-Carbon" xmlns="http://www.w3.org/2000/svg" viewBox="0 0 24 24" height="24" width="24">
  <desc>
    Ibm Db2 Streamline Icon: https://streamlinehq.com
  </desc>
  <defs></defs>
  <path d="M12 9.75c-2.565525 0 -4.5 1.1286749999999999 -4.5 2.625v6c0 1.4963250000000001 1.934475 2.625 4.5 2.625s4.5 -1.1286749999999999 4.5 -2.625v-6c0 -1.4963250000000001 -1.934475 -2.625 -4.5 -2.625Zm0 1.5c1.8610499999999999 0 3 0.7283999999999999 3 1.125S13.86105 13.5 12 13.5s-3 -0.7283999999999999 -3 -1.125 1.13895 -1.125 3 -1.125Zm0 8.25c-1.8610499999999999 0 -3 -0.7283999999999999 -3 -1.125v-1.014375c0.785175 0.40065 1.8248250000000001 0.639375 3 0.639375s2.2148250000000003 -0.2388 3 -0.639375V18.375c0 0.39660000000000006 -1.13895 1.125 -3 1.125Zm0 -3c-1.8610499999999999 0 -3 -0.7283999999999999 -3 -1.125v-1.014375c0.785175 0.40065 1.8248250000000001 0.639375 3 0.639375s2.2148250000000003 -0.2388 3 -0.639375V15.375c0 0.39660000000000006 -1.13895 1.125 -3 1.125Z" fill="#000000" stroke-width="0.75"></path>
  <path d="M22.5 11.625c0 2.31 -1.605 4.237500000000001 -3.757425 4.7399249999999995V14.8125C20.055075000000002 14.3475 21 13.1025 21 11.625c0 -1.7475 -1.3725 -3.2175000000000002 -3.1125000000000003 -3.360075l-0.6075 -0.044925 -0.07500000000000001 -0.607425c-0.3225 -2.625 -2.565 -4.612500000000001 -5.205 -4.612500000000001 -2.6475 0 -4.89 1.9874999999999998 -5.2125 4.612500000000001l-0.07500000000000001 0.607425 -0.6075 0.044925C4.365 8.4075 3 9.8775 3 11.625c0 1.47 0.9375 2.715 2.242575 3.18v1.56C3.097575 15.855075 1.5 13.9275 1.5 11.625074999999999c0 -2.325 1.665 -4.3125 3.9000000000000004 -4.7700000000000005 0.645 -3.0900749999999997 3.3899999999999997 -5.3549999999999995 6.6000000000000005 -5.3549999999999995 3.2024999999999997 0 5.9475750000000005 2.264925 6.6000000000000005 5.3549999999999995 2.2275 0.4575 3.9000000000000004 2.445 3.9000000000000004 4.7700000000000005Z" fill="#000000" stroke-width="0.75"></path>
  <path id="_Transparent_Rectangle_" d="M0 0h24v24H0Z" fill="none" stroke-width="0.75"></path>
</svg>